<?xml version="1.0" encoding="UTF-8" standalone="no" ?>
<!DOCTYPE svg PUBLIC "-//W3C//DTD SVG 1.1//EN" "http://www.w3.org/Graphics/SVG/1.1/DTD/svg11.dtd">
<svg xmlns="http://www.w3.org/2000/svg" xmlns:xlink="http://www.w3.org/1999/xlink" version="1.1" width="100pt" height="45pt" viewBox="0 0 99.99999999999999 45" xml:space="preserve">
<desc>Created with Fabric.js 4.6.0</desc>
<defs>
</defs>
<g transform="matrix(1 0 0 1 63.68 22.5)" id="EWlT7Uf9pqvRIwG6r4_nJ"  >
<path style="stroke: rgb(130,7,246); stroke-width: 0; stroke-dasharray: none; stroke-linecap: butt; stroke-dashoffset: 0; stroke-linejoin: miter; stroke-miterlimit: 4; fill: rgb(0,0,0); fill-rule: nonzero; opacity: 1;" vector-effect="non-scaling-stroke"  transform=" translate(-7, -22.5)" d="M 0 0 L 14 0 L 14 45 L 0 45 z" stroke-linecap="round" />
</g>
<g transform="matrix(1 0 0 1 8.42 38.6)" id="901D24Xnj78q1gdR6PUmD"  >
<path style="stroke: rgb(0,0,0); stroke-width: 0; stroke-dasharray: none; stroke-linecap: butt; stroke-dashoffset: 0; stroke-linejoin: miter; stroke-miterlimit: 4; fill: rgb(0,0,0); fill-rule: nonzero; opacity: 1;" vector-effect="non-scaling-stroke"  transform=" translate(-7, -6.48)" d="M 14 12.95467 L 0 12.95467 C 3.8843 9.84232 6.51644 5.230700000000001 7.01638 0 C 7.5079199999999995 5.2265 10.12802 9.837 14 12.95467 z" stroke-linecap="round" />
</g>
<g transform="matrix(1.07 0 0 0.86 88.1 14.67)" id="fmwSH11b_U_ivu2TG7HNy"  >
<path style="stroke: rgb(5,47,129); stroke-width: 0; stroke-dasharray: none; stroke-linecap: butt; stroke-dashoffset: 0; stroke-linejoin: miter; stroke-miterlimit: 4; fill: rgb(0,0,0); fill-rule: nonzero; opacity: 1;" vector-effect="non-scaling-stroke"  transform=" translate(-9.75, -17)" d="M 2.5003 0 C 11.8843 0 19.5003 7.616 19.5003 17 C 19.5003 26.384 11.8843 34 2.5002999999999993 34 C 1.6509399999999994 34 0.8160599999999993 33.93761 -8.881784197001252e-16 33.81716 C 5.144049999999999 30.004920000000002 8.48031 23.88971 8.48031 17 C 8.48031 10.110299999999999 5.14405 3.9950799999999997 0.000009999999999621423 0.1828499999999984 C 0.8160599999999997 0.0623999999999984 1.6509399999999996 0.000009999999998400178 2.5002899999999997 0.000009999999998400178 z" stroke-linecap="round" />
</g>
<g transform="matrix(1 0 0 1 29.17 15.66)" id="zpKPSn58aZcGlKFJzeR4U"  >
<path style="stroke: rgb(130,7,246); stroke-width: 0; stroke-dasharray: none; stroke-linecap: butt; stroke-dashoffset: 0; stroke-linejoin: miter; stroke-miterlimit: 4; fill: rgb(0,0,0); fill-rule: nonzero; opacity: 1;" vector-effect="non-scaling-stroke"  transform=" translate(-20.59, -15.64)" d="M 41.18934 21.39035 L 31.28985 31.28984 L 0 -0.000009999999999621423 L 19.79899 -0.000009999999999621423 z" stroke-linecap="round" />
</g>
</svg>