<svg xmlns="http://www.w3.org/2000/svg" xml:space="preserve" width="71pt" height="32pt" viewBox="0 0 100 45"><path d="M0 0h14v45H0z" style="stroke:#8207f6;stroke-width:0;stroke-dasharray:none;stroke-linecap:butt;stroke-dashoffset:0;stroke-linejoin:miter;stroke-miterlimit:4;fill:#000;fill-rule:nonzero;opacity:1" transform="translate(56.68)" vector-effect="non-scaling-stroke"/><path d="M14 12.955H0A18.901 18.901 0 0 0 7.016 0 18.9 18.9 0 0 0 14 12.955z" style="stroke:#000;stroke-width:0;stroke-dasharray:none;stroke-linecap:butt;stroke-dashoffset:0;stroke-linejoin:miter;stroke-miterlimit:4;fill:#000;fill-rule:nonzero;opacity:1" transform="translate(1.42 32.12)" vector-effect="non-scaling-stroke"/><path d="M2.5 0c9.384 0 17 7.616 17 17s-7.616 17-17 17c-.85 0-1.684-.062-2.5-.183C5.144 30.005 8.48 23.89 8.48 17 8.48 10.11 5.144 3.995 0 .183.816.063 1.65 0 2.5 0z" style="stroke:#052f81;stroke-width:0;stroke-dasharray:none;stroke-linecap:butt;stroke-dashoffset:0;stroke-linejoin:miter;stroke-miterlimit:4;fill:#000;fill-rule:nonzero;opacity:1" transform="matrix(1.07 0 0 .86 77.667 .05)" vector-effect="non-scaling-stroke"/><path d="m41.19 21.39-9.9 9.9L0 0h19.799z" style="stroke:#8207f6;stroke-width:0;stroke-dasharray:none;stroke-linecap:butt;stroke-dashoffset:0;stroke-linejoin:miter;stroke-miterlimit:4;fill:#000;fill-rule:nonzero;opacity:1" transform="translate(8.58 .02)" vector-effect="non-scaling-stroke"/></svg>